# xmcd
#
# Track frame offsets:
#	150
#	16897
#	37916
#	58682
#	77164
#	95793
#	109616
#	126008
#	144788
#	161824
#	179706
#	198421
#	213072
#	229677
#	247185
#	265892
#
# Disc length: 3765 seconds
#
# Revision: 1
# Processed by: cddbd v1.5.2PL0 Copyright (c) Steve Scherf et al.
# Submitted via: audiograbber 1.83.01
#
DISCID=db0eb310
DTITLE=Forever Hits - FH-3114 Brad and Friends
DYEAR=1900
DGENRE=Karaoke
TTITLE0=Brad Paisley - Celebrity
TTITLE1=Brad Paisley - He Didn't Have To Be
TTITLE2=Joe Diffie - John Deer Green
TTITLE3=Brad Paisley - The Best Thing I Had Goin'
TTITLE4=Brad Paisley - Two People Fell In Love
TTITLE5=Brad Paisley - Wrapped Around
TTITLE6=George Strait - I Cross My Heart
TTITLE7=Brad Paisley - I Wish You'd Stay
TTITLE8=Brad Paisley - Little Moments
TTITLE9=Joe Nichols - Brokenheartsville
TTITLE10=Tim McGraw - Don't Take The Girl
TTITLE11=Tim McGraw - My Next Thirty Years
TTITLE12=Kenny Chesney - Me And You
TTITLE13=Kenny Chesney - You Had Me From Hello
TTITLE14=Collin Raye - One Boy, One Girl
TTITLE15=Toby Keith - Stays In Mexico
EXTD=
EXTT0=
EXTT1=
EXTT2=
EXTT3=
EXTT4=
EXTT5=
EXTT6=
EXTT7=
EXTT8=
EXTT9=
EXTT10=
EXTT11=
EXTT12=
EXTT13=
EXTT14=
EXTT15=
PLAYORDER=
